# xmcd
#
# Track frame offsets:
#	150
#	14435
#	29825
#	45118
#	60103
#	72538
#	86783
#	102525
#	117228
#	128803
#
# Disc length: 1914 seconds
#
# Revision: 4
# Processed by: cddbd v1.5.2PL0 Copyright (c) Steve Scherf et al.
# Submitted via: EZCDAudioConverter 6.0.2.1
#
DISCID=8507780a
DTITLE=Sweethearts Of The Rodeo - Buffalo Zone
DYEAR=1990
DGENRE=Country
TTITLE0=Uphill All The Way
TTITLE1=He Doesn't Tell Me Anything
TTITLE2=You Look At Love That Way
TTITLE3=This Heart
TTITLE4=Hard Road To Go
TTITLE5=What It Does To Me
TTITLE6=Blue Sky
TTITLE7=I Don't Want You To Know
TTITLE8=Don't Wake Me Up
TTITLE9=Como Se Dice (I Love You)
EXTD=
EXTT0=
EXTT1=
EXTT2=
EXTT3=
EXTT4=
EXTT5=
EXTT6=
EXTT7=
EXTT8=
EXTT9=
PLAYORDER=
